<svg width="280" height="395" viewBox="0 0 280 395" fill="none" xmlns="http://www.w3.org/2000/svg">
<g clip-path="url(#clip0_6_1411)">
<rect x="0.5" y="0.5" width="279" height="394" rx="19.5" fill="url(#paint0_linear_6_1411)"/>
<rect x="0.5" y="0.5" width="279" height="394" rx="19.5" stroke="#D2D2D2"/>
<path fill-rule="evenodd" clip-rule="evenodd" d="M245 166H35C27.268 166 21 172.268 21 180V225C21 232.732 27.268 239 35 239H245C252.732 239 259 232.732 259 225V180C259 172.268 252.732 166 245 166ZM25 180C25 174.477 29.4772 170 35 170H245C250.523 170 255 174.477 255 180V225C255 230.523 250.523 235 245 235H35C29.4772 235 25 230.523 25 225V180ZM38.1381 190.727V214H41.6494V205.193H46.4222C46.4981 205.193 46.5735 205.193 46.6484 205.192L51.3767 214H55.3767L50.226 204.594C50.4646 204.505 50.6928 204.405 50.9108 204.295C52.1078 203.697 53.0017 202.86 53.5926 201.784C54.1911 200.701 54.4903 199.447 54.4903 198.023C54.4903 196.591 54.1949 195.33 53.604 194.239C53.0131 193.14 52.1191 192.28 50.9222 191.659C49.7328 191.038 48.2366 190.727 46.4335 190.727H38.1381ZM41.6494 202.17H46.104C47.2403 202.17 48.1646 202.008 48.8767 201.682C49.5964 201.356 50.1229 200.883 50.4563 200.261C50.7896 199.64 50.9563 198.894 50.9563 198.023C50.9563 197.144 50.7858 196.383 50.4449 195.739C50.1116 195.095 49.585 194.602 48.8653 194.261C48.1532 193.913 47.2176 193.739 46.0585 193.739H41.6494V202.17ZM56.8903 196.545V214H60.2881V196.545H56.8903ZM57.0835 193.261C57.5078 193.655 58.0153 193.852 58.6063 193.852C59.1972 193.852 59.701 193.655 60.1176 193.261C60.5419 192.86 60.754 192.383 60.754 191.83C60.754 191.269 60.5419 190.792 60.1176 190.398C59.701 189.996 59.1972 189.795 58.6063 189.795C58.0153 189.795 57.5078 189.996 57.0835 190.398C56.6669 190.792 56.4585 191.269 56.4585 191.83C56.4585 192.383 56.6669 192.86 57.0835 193.261ZM66.2477 213.205C67.4674 213.97 68.922 214.352 70.6114 214.352C71.9902 214.352 73.1909 214.098 74.2136 213.591C75.2439 213.083 76.0659 212.386 76.6796 211.5C77.2932 210.614 77.6606 209.606 77.7818 208.477H74.475C74.3311 209.106 74.0773 209.644 73.7136 210.091C73.3576 210.538 72.9144 210.883 72.3841 211.125C71.8614 211.36 71.278 211.477 70.6341 211.477C69.672 211.477 68.8349 211.223 68.1227 210.716C67.4182 210.208 66.8727 209.492 66.4864 208.568C66.1 207.644 65.9068 206.545 65.9068 205.273C65.9068 204.03 66.1038 202.955 66.4977 202.045C66.8917 201.129 67.4409 200.424 68.1455 199.932C68.8576 199.432 69.6871 199.182 70.6341 199.182C71.7174 199.182 72.5811 199.477 73.225 200.068C73.8765 200.659 74.2932 201.364 74.475 202.182H77.7818C77.6606 201.008 77.278 199.981 76.6341 199.102C75.9977 198.223 75.1606 197.542 74.1227 197.057C73.0849 196.564 71.903 196.318 70.5773 196.318C68.9333 196.318 67.5053 196.701 66.2932 197.466C65.0811 198.231 64.1417 199.295 63.475 200.659C62.8083 202.015 62.475 203.58 62.475 205.352C62.475 207.102 62.8008 208.655 63.4523 210.011C64.1038 211.367 65.0356 212.432 66.2477 213.205ZM83.2131 207.807V214H79.8153V190.727H83.2131V203.932H83.5085L90.4631 196.545H94.5312L87.4648 204.037L95.0085 214H90.8381L84.9006 206.119L83.2131 207.807ZM104.976 213.773C105.87 214.182 106.87 214.386 107.976 214.386C108.938 214.386 109.764 214.246 110.453 213.966C111.143 213.686 111.707 213.333 112.147 212.909C112.586 212.485 112.916 212.053 113.135 211.614H113.272V214H116.59V202.409C116.59 201.136 116.37 200.102 115.931 199.307C115.491 198.504 114.927 197.886 114.238 197.455C113.556 197.023 112.821 196.727 112.033 196.568C111.253 196.402 110.514 196.318 109.817 196.318C108.764 196.318 107.76 196.47 106.806 196.773C105.851 197.068 105.006 197.545 104.272 198.205C103.544 198.856 102.991 199.712 102.613 200.773L105.806 201.5C106.056 200.886 106.506 200.33 107.158 199.83C107.817 199.322 108.719 199.068 109.863 199.068C110.961 199.068 111.787 199.341 112.34 199.886C112.9 200.432 113.181 201.201 113.181 202.193V202.273C113.181 202.682 113.033 202.977 112.738 203.159C112.442 203.341 111.969 203.473 111.317 203.557C110.666 203.633 109.817 203.731 108.772 203.852C107.946 203.951 107.135 204.095 106.34 204.284C105.544 204.473 104.825 204.754 104.181 205.125C103.537 205.496 103.025 206 102.647 206.636C102.268 207.273 102.078 208.083 102.078 209.068C102.078 210.212 102.336 211.178 102.851 211.966C103.374 212.754 104.082 213.356 104.976 213.773ZM111.124 211.102C110.457 211.473 109.654 211.659 108.715 211.659C107.753 211.659 106.961 211.447 106.34 211.023C105.719 210.591 105.408 209.955 105.408 209.114C105.408 208.508 105.567 208.023 105.885 207.659C106.211 207.288 106.643 207.004 107.181 206.807C107.726 206.61 108.328 206.47 108.988 206.386C109.268 206.348 109.616 206.303 110.033 206.25C110.45 206.189 110.878 206.125 111.317 206.057C111.756 205.981 112.147 205.894 112.488 205.795C112.836 205.689 113.071 205.576 113.192 205.455V207.705C113.192 208.394 113.014 209.042 112.658 209.648C112.309 210.246 111.798 210.731 111.124 211.102ZM122.913 214V203.636C122.913 202.712 123.087 201.924 123.436 201.273C123.792 200.614 124.273 200.114 124.879 199.773C125.493 199.432 126.193 199.261 126.981 199.261C128.133 199.261 129.038 199.621 129.697 200.341C130.356 201.053 130.686 202.042 130.686 203.307V214H134.084V202.898C134.084 201.458 133.837 200.25 133.345 199.273C132.852 198.295 132.159 197.561 131.265 197.068C130.371 196.568 129.33 196.318 128.14 196.318C126.83 196.318 125.743 196.598 124.879 197.159C124.023 197.72 123.394 198.462 122.993 199.386H122.777V196.545H119.515V214H122.913ZM139.802 213.261C140.908 213.981 142.165 214.341 143.574 214.341C144.635 214.341 145.499 214.163 146.165 213.807C146.832 213.451 147.355 213.034 147.734 212.557C148.12 212.08 148.415 211.655 148.62 211.284H148.904V214H152.222V190.727H148.824V199.375H148.62C148.415 199.011 148.127 198.591 147.756 198.114C147.393 197.636 146.877 197.22 146.211 196.864C145.552 196.5 144.68 196.318 143.597 196.318C142.196 196.318 140.942 196.674 139.836 197.386C138.73 198.098 137.859 199.125 137.222 200.466C136.593 201.807 136.279 203.42 136.279 205.307C136.279 207.193 136.59 208.811 137.211 210.159C137.84 211.5 138.703 212.534 139.802 213.261ZM146.802 210.67C146.127 211.186 145.302 211.443 144.324 211.443C143.317 211.443 142.468 211.174 141.779 210.636C141.097 210.091 140.582 209.352 140.234 208.42C139.885 207.489 139.711 206.439 139.711 205.273C139.711 204.121 139.881 203.087 140.222 202.17C140.571 201.254 141.086 200.53 141.768 200C142.449 199.47 143.302 199.205 144.324 199.205C145.317 199.205 146.15 199.458 146.824 199.966C147.499 200.473 148.01 201.182 148.359 202.091C148.707 203 148.881 204.061 148.881 205.273C148.881 206.5 148.703 207.576 148.347 208.5C147.999 209.424 147.484 210.148 146.802 210.67ZM166.874 190.727H162.613V214H165.954V197.148H166.17L173.034 213.966H175.806L182.67 197.159H182.886V214H186.227V190.727H181.965L174.556 208.818H174.284L166.874 190.727ZM192.527 213.227C193.747 213.977 195.175 214.352 196.811 214.352C198.448 214.352 199.876 213.977 201.095 213.227C202.315 212.477 203.262 211.428 203.936 210.08C204.611 208.731 204.948 207.155 204.948 205.352C204.948 203.542 204.611 201.958 203.936 200.602C203.262 199.246 202.315 198.193 201.095 197.443C199.876 196.693 198.448 196.318 196.811 196.318C195.175 196.318 193.747 196.693 192.527 197.443C191.308 198.193 190.361 199.246 189.686 200.602C189.012 201.958 188.675 203.542 188.675 205.352C188.675 207.155 189.012 208.731 189.686 210.08C190.361 211.428 191.308 212.477 192.527 213.227ZM199.459 210.659C198.762 211.22 197.883 211.5 196.823 211.5C195.755 211.5 194.868 211.22 194.164 210.659C193.467 210.098 192.948 209.352 192.607 208.42C192.273 207.489 192.107 206.462 192.107 205.341C192.107 204.227 192.273 203.205 192.607 202.273C192.948 201.333 193.467 200.58 194.164 200.011C194.868 199.443 195.755 199.159 196.823 199.159C197.883 199.159 198.762 199.443 199.459 200.011C200.156 200.58 200.671 201.333 201.005 202.273C201.345 203.205 201.516 204.227 201.516 205.341C201.516 206.462 201.345 207.489 201.005 208.42C200.671 209.352 200.156 210.098 199.459 210.659ZM210.424 196.545H207.14V214H210.538V203.341C210.538 202.583 210.72 201.909 211.084 201.318C211.447 200.72 211.94 200.254 212.561 199.92C213.19 199.58 213.905 199.409 214.709 199.409C215.057 199.409 215.405 199.436 215.754 199.489C216.102 199.534 216.345 199.576 216.481 199.614V196.364C216.315 196.341 216.084 196.322 215.788 196.307C215.5 196.292 215.25 196.284 215.038 196.284C214.015 196.284 213.099 196.557 212.288 197.102C211.485 197.64 210.924 198.379 210.606 199.318H210.424V196.545ZM227.001 199.273V196.545H223.421V192.364H220.023V196.545H217.466V199.273H220.023V209.58C220.023 210.633 220.262 211.508 220.739 212.205C221.216 212.902 221.841 213.417 222.614 213.75C223.387 214.083 224.22 214.242 225.114 214.227C225.66 214.22 226.114 214.174 226.478 214.091C226.841 214.015 227.122 213.939 227.319 213.864L226.705 211.057C226.591 211.08 226.432 211.11 226.228 211.148C226.023 211.186 225.785 211.205 225.512 211.205C225.141 211.205 224.796 211.148 224.478 211.034C224.167 210.913 223.913 210.689 223.716 210.364C223.52 210.03 223.421 209.534 223.421 208.875V199.273H227.001ZM229.92 220.42C230.337 220.504 230.799 220.545 231.307 220.545C232.246 220.545 233.072 220.386 233.784 220.068C234.496 219.75 235.11 219.273 235.625 218.636C236.14 218.008 236.564 217.239 236.898 216.33L244.091 196.545H240.443L236.023 210.091H235.841L231.42 196.545H227.784L234.17 214.227L233.75 215.386C233.462 216.159 233.129 216.716 232.75 217.057C232.379 217.398 231.951 217.58 231.466 217.602C230.981 217.625 230.428 217.553 229.807 217.386L228.989 220.17C229.193 220.261 229.504 220.345 229.92 220.42Z" fill="url(#paint1_angular_6_1411)"/>
</g>
<defs>
<linearGradient id="paint0_linear_6_1411" x1="14" y1="8.14068e-07" x2="275.921" y2="394.389" gradientUnits="userSpaceOnUse">
<stop stop-color="#53565B"/>
<stop offset="1" stop-color="#262D3D"/>
</linearGradient>
<radialGradient id="paint1_angular_6_1411" cx="0" cy="0" r="1" gradientUnits="userSpaceOnUse" gradientTransform="translate(53.0691 198) rotate(90) scale(36 112.931)">
<stop stop-color="#F5BB6E"/>
<stop offset="0.244792" stop-color="#EC606C"/>
<stop offset="0.364583" stop-color="#EC606C"/>
<stop offset="0.557292" stop-color="#4364EF"/>
<stop offset="0.692708" stop-color="#4364EF"/>
<stop offset="0.833333" stop-color="#41D589"/>
<stop offset="0.942708" stop-color="#41D589"/>
</radialGradient>
<clipPath id="clip0_6_1411">
<rect width="280" height="395" rx="20" fill="white"/>
</clipPath>
</defs>
</svg>
